# Blender 5.2.0 LTS
# www.blender.org
o Slope_Convex
v 1.000000 1.000000 0.000000
v 1.000000 0.000000 0.000000
v 1.000000 0.000000 1.000000
v 0.000000 1.000000 0.000000
v 0.000000 0.995185 0.098017
v -0.000000 0.000000 0.000000
v -0.000000 0.000000 1.000000
v 0.000000 0.980785 0.195090
v 0.000000 0.956940 0.290284
v 0.000000 0.923879 0.382683
v 0.000000 0.881921 0.471397
v 0.000000 0.831470 0.555570
v 0.000000 0.773010 0.634393
v 0.000000 0.707107 0.707107
v 0.000000 0.634393 0.773010
v 0.000000 0.555570 0.831469
v 0.000000 0.471397 0.881921
v 0.000000 0.382683 0.923879
v -0.000000 0.290285 0.956940
v -0.000000 0.195090 0.980785
v -0.000000 0.098017 0.995185
v 1.000000 0.098017 0.995185
v 1.000000 0.195090 0.980785
v 1.000000 0.290285 0.956940
v 1.000000 0.382683 0.923879
v 1.000000 0.471397 0.881921
v 1.000000 0.555570 0.831469
v 1.000000 0.634393 0.773010
v 1.000000 0.707107 0.707107
v 1.000000 0.773010 0.634393
v 1.000000 0.831470 0.555570
v 1.000000 0.881921 0.471397
v 1.000000 0.923879 0.382683
v 1.000000 0.956940 0.290284
v 1.000000 0.980785 0.195090
v 1.000000 0.995185 0.098017
s 0
f 24 23 2
f 3 6 2
f 17 16 6
f 6 1 2
f 1 4 5
f 36 5 8
f 35 8 9
f 34 9 10
f 33 10 11
f 32 11 12
f 31 12 13
f 30 13 14
f 29 14 15
f 28 15 16
f 27 16 17
f 26 17 18
f 25 18 19
f 24 19 20
f 23 20 21
f 22 21 7
f 36 1 5
f 35 36 8
f 34 35 9
f 33 34 10
f 32 33 11
f 31 32 12
f 30 31 13
f 29 30 14
f 28 29 15
f 27 28 16
f 26 27 17
f 25 26 18
f 24 25 19
f 23 24 20
f 22 23 21
f 3 22 7
f 2 1 36
f 3 2 22
f 33 32 2
f 34 33 2
f 35 34 2
f 35 2 36
f 29 28 2
f 30 29 2
f 31 30 2
f 32 31 2
f 27 26 2
f 28 27 2
f 25 24 2
f 26 25 2
f 16 15 6
f 3 7 6
f 14 13 6
f 15 14 6
f 10 9 6
f 11 10 6
f 12 11 6
f 13 12 6
f 6 7 21
f 5 4 6
f 8 5 6
f 9 8 6
f 20 19 6
f 21 20 6
f 18 17 6
f 19 18 6
f 6 4 1
f 23 22 2
