# Blender 5.0.0
# www.blender.org
o Cube
v 0.000000 0.000000 1.000000
v 1.000000 0.000000 1.000000
v 0.000000 1.000000 0.000000
v 1.000000 1.000000 0.000000
v 0.000000 0.000000 0.000000
v 1.000000 0.000000 0.000000
v 1.000000 0.901983 0.004815
v 1.000000 0.804910 0.019215
v 1.000000 0.709716 0.043060
v 1.000000 0.617317 0.076121
v 1.000000 0.528603 0.118079
v 1.000000 0.444430 0.168530
v 1.000000 0.365607 0.226990
v 1.000000 0.292893 0.292893
v 1.000000 0.226990 0.365607
v 1.000000 0.168531 0.444430
v 1.000000 0.118079 0.528603
v 1.000000 0.076121 0.617317
v 1.000000 0.043060 0.709715
v 1.000000 0.019215 0.804910
v 1.000000 0.004815 0.901983
v 0.000000 0.004815 0.901983
v 0.000000 0.019215 0.804910
v 0.000000 0.043060 0.709715
v 0.000000 0.076121 0.617317
v 0.000000 0.118079 0.528603
v 0.000000 0.168531 0.444430
v 0.000000 0.226990 0.365607
v 0.000000 0.292893 0.292893
v 0.000000 0.365607 0.226990
v 0.000000 0.444430 0.168530
v 0.000000 0.528603 0.118079
v 0.000000 0.617317 0.076121
v 0.000000 0.709716 0.043060
v 0.000000 0.804910 0.019215
v 0.000000 0.901983 0.004815
s 0
f 3 7 4
f 36 8 7
f 35 9 8
f 34 10 9
f 33 11 10
f 32 12 11
f 31 13 12
f 30 14 13
f 29 15 14
f 28 16 15
f 27 17 16
f 26 18 17
f 25 19 18
f 24 20 19
f 23 21 20
f 22 2 21
f 3 4 6
f 5 6 2
f 14 15 6
f 29 5 28
f 3 36 7
f 36 35 8
f 35 34 9
f 34 33 10
f 33 32 11
f 32 31 12
f 31 30 13
f 30 29 14
f 29 28 15
f 28 27 16
f 27 26 17
f 26 25 18
f 25 24 19
f 24 23 20
f 23 22 21
f 22 1 2
f 3 6 5
f 5 2 1
f 6 4 7
f 6 7 8
f 21 2 6
f 20 21 6
f 6 8 9
f 6 9 10
f 19 20 6
f 18 19 6
f 6 10 11
f 6 11 12
f 17 18 6
f 16 17 6
f 6 12 13
f 6 13 14
f 15 16 6
f 5 36 3
f 5 35 36
f 22 5 1
f 23 5 22
f 5 34 35
f 5 33 34
f 24 5 23
f 25 5 24
f 5 32 33
f 5 31 32
f 26 5 25
f 27 5 26
f 5 30 31
f 5 29 30
f 28 5 27
