# Blender 5.2.1 LTS
# www.blender.org
o slope_convex_inner
v 0.000000 0.000000 0.000000
v 1.000000 0.000000 0.000000
v 1.000000 0.000000 1.000000
v 0.000000 0.000000 1.000000
v 0.000000 1.000000 0.000000
v 1.000000 1.000000 0.000000
v 1.000000 0.995185 0.098017
v 0.098017 0.995185 0.098017
v 0.098017 0.995185 0.098017
v 1.000000 0.995185 0.098017
v 1.000000 0.980785 0.195090
v 0.195090 0.980785 0.195090
v 0.195090 0.980785 0.195090
v 1.000000 0.980785 0.195090
v 1.000000 0.956940 0.290285
v 0.290285 0.956940 0.290285
v 0.290285 0.956940 0.290285
v 1.000000 0.956940 0.290285
v 1.000000 0.923880 0.382683
v 0.382683 0.923880 0.382683
v 0.382683 0.923880 0.382683
v 1.000000 0.923880 0.382683
v 1.000000 0.881921 0.471397
v 0.471397 0.881921 0.471397
v 0.471397 0.881921 0.471397
v 1.000000 0.881921 0.471397
v 1.000000 0.831470 0.555570
v 0.555570 0.831470 0.555570
v 0.555570 0.831470 0.555570
v 1.000000 0.831470 0.555570
v 1.000000 0.773010 0.634393
v 0.634393 0.773010 0.634393
v 0.634393 0.773010 0.634393
v 1.000000 0.773010 0.634393
v 1.000000 0.707107 0.707107
v 0.707107 0.707107 0.707107
v 0.707107 0.707107 0.707107
v 1.000000 0.707107 0.707107
v 1.000000 0.634393 0.773010
v 0.773010 0.634393 0.773010
v 0.773010 0.634393 0.773010
v 1.000000 0.634393 0.773010
v 1.000000 0.555570 0.831470
v 0.831470 0.555570 0.831470
v 0.831470 0.555570 0.831470
v 1.000000 0.555570 0.831470
v 1.000000 0.471397 0.881921
v 0.881921 0.471397 0.881921
v 0.881921 0.471397 0.881921
v 1.000000 0.471397 0.881921
v 1.000000 0.382683 0.923880
v 0.923880 0.382683 0.923880
v 0.923880 0.382683 0.923880
v 1.000000 0.382683 0.923880
v 1.000000 0.290285 0.956940
v 0.956940 0.290285 0.956940
v 0.956940 0.290285 0.956940
v 1.000000 0.290285 0.956940
v 1.000000 0.195090 0.980785
v 0.980785 0.195090 0.980785
v 0.980785 0.195090 0.980785
v 1.000000 0.195090 0.980785
v 1.000000 0.098017 0.995185
v 0.995185 0.098017 0.995185
v 0.995185 0.098017 0.995185
v 1.000000 0.098017 0.995185
v 1.000000 0.000000 1.000000
v 0.000000 1.000000 0.000000
v 0.000000 1.000000 1.000000
v 0.098017 0.995185 1.000000
v 0.098017 0.995185 0.098017
v 0.098017 0.995185 0.098017
v 0.098017 0.995185 1.000000
v 0.195090 0.980785 1.000000
v 0.195090 0.980785 0.195090
v 0.195090 0.980785 0.195090
v 0.195090 0.980785 1.000000
v 0.290285 0.956940 1.000000
v 0.290285 0.956940 0.290285
v 0.290285 0.956940 0.290285
v 0.290285 0.956940 1.000000
v 0.382683 0.923880 1.000000
v 0.382683 0.923880 0.382683
v 0.382683 0.923880 0.382683
v 0.382683 0.923880 1.000000
v 0.471397 0.881921 1.000000
v 0.471397 0.881921 0.471397
v 0.471397 0.881921 0.471397
v 0.471397 0.881921 1.000000
v 0.555570 0.831470 1.000000
v 0.555570 0.831470 0.555570
v 0.555570 0.831470 0.555570
v 0.555570 0.831470 1.000000
v 0.634393 0.773010 1.000000
v 0.634393 0.773010 0.634393
v 0.634393 0.773010 0.634393
v 0.634393 0.773010 1.000000
v 0.707107 0.707107 1.000000
v 0.707107 0.707107 0.707107
v 0.707107 0.707107 0.707107
v 0.707107 0.707107 1.000000
v 0.773010 0.634393 1.000000
v 0.773010 0.634393 0.773010
v 0.773010 0.634393 0.773010
v 0.773010 0.634393 1.000000
v 0.831470 0.555570 1.000000
v 0.831470 0.555570 0.831470
v 0.831470 0.555570 0.831470
v 0.831470 0.555570 1.000000
v 0.881921 0.471397 1.000000
v 0.881921 0.471397 0.881921
v 0.881921 0.471397 0.881921
v 0.881921 0.471397 1.000000
v 0.923880 0.382683 1.000000
v 0.923880 0.382683 0.923880
v 0.923880 0.382683 0.923880
v 0.923880 0.382683 1.000000
v 0.956940 0.290285 1.000000
v 0.956940 0.290285 0.956940
v 0.956940 0.290285 0.956940
v 0.956940 0.290285 1.000000
v 0.980785 0.195090 1.000000
v 0.980785 0.195090 0.980785
v 0.980785 0.195090 0.980785
v 0.980785 0.195090 1.000000
v 0.995185 0.098017 1.000000
v 0.995185 0.098017 0.995185
v 0.995185 0.098017 0.995185
v 0.995185 0.098017 1.000000
v 1.000000 0.000000 1.000000
v 0.000000 0.000000 0.000000
v 0.000000 0.000000 1.000000
v 0.000000 1.000000 1.000000
v 0.000000 1.000000 0.000000
v 0.000000 0.000000 0.000000
v 1.000000 0.000000 0.000000
v 1.000000 1.000000 0.000000
v 0.000000 1.000000 0.000000
v 1.000000 0.000000 0.000000
v 1.000000 1.000000 0.000000
v 1.000000 0.995185 0.098017
v 1.000000 0.000000 0.000000
v 1.000000 0.995185 0.098017
v 1.000000 0.980785 0.195090
v 1.000000 0.000000 0.000000
v 1.000000 0.980785 0.195090
v 1.000000 0.956940 0.290285
v 1.000000 0.000000 0.000000
v 1.000000 0.956940 0.290285
v 1.000000 0.923880 0.382683
v 1.000000 0.000000 0.000000
v 1.000000 0.923880 0.382683
v 1.000000 0.881921 0.471397
v 1.000000 0.000000 0.000000
v 1.000000 0.881921 0.471397
v 1.000000 0.831470 0.555570
v 1.000000 0.000000 0.000000
v 1.000000 0.831470 0.555570
v 1.000000 0.773010 0.634393
v 1.000000 0.000000 0.000000
v 1.000000 0.773010 0.634393
v 1.000000 0.707107 0.707107
v 1.000000 0.000000 0.000000
v 1.000000 0.707107 0.707107
v 1.000000 0.634393 0.773010
v 1.000000 0.000000 0.000000
v 1.000000 0.634393 0.773010
v 1.000000 0.555570 0.831470
v 1.000000 0.000000 0.000000
v 1.000000 0.555570 0.831470
v 1.000000 0.471397 0.881921
v 1.000000 0.000000 0.000000
v 1.000000 0.471397 0.881921
v 1.000000 0.382683 0.923880
v 1.000000 0.000000 0.000000
v 1.000000 0.382683 0.923880
v 1.000000 0.290285 0.956940
v 1.000000 0.000000 0.000000
v 1.000000 0.290285 0.956940
v 1.000000 0.195090 0.980785
v 1.000000 0.000000 0.000000
v 1.000000 0.195090 0.980785
v 1.000000 0.098017 0.995185
v 1.000000 0.000000 0.000000
v 1.000000 0.098017 0.995185
v 1.000000 0.000000 1.000000
v 0.000000 0.000000 1.000000
v 0.000000 1.000000 1.000000
v 0.098017 0.995185 1.000000
v 0.000000 0.000000 1.000000
v 0.098017 0.995185 1.000000
v 0.195090 0.980785 1.000000
v 0.000000 0.000000 1.000000
v 0.195090 0.980785 1.000000
v 0.290285 0.956940 1.000000
v 0.000000 0.000000 1.000000
v 0.290285 0.956940 1.000000
v 0.382683 0.923880 1.000000
v 0.000000 0.000000 1.000000
v 0.382683 0.923880 1.000000
v 0.471397 0.881921 1.000000
v 0.000000 0.000000 1.000000
v 0.471397 0.881921 1.000000
v 0.555570 0.831470 1.000000
v 0.000000 0.000000 1.000000
v 0.555570 0.831470 1.000000
v 0.634393 0.773010 1.000000
v 0.000000 0.000000 1.000000
v 0.634393 0.773010 1.000000
v 0.707107 0.707107 1.000000
v 0.000000 0.000000 1.000000
v 0.707107 0.707107 1.000000
v 0.773010 0.634393 1.000000
v 0.000000 0.000000 1.000000
v 0.773010 0.634393 1.000000
v 0.831470 0.555570 1.000000
v 0.000000 0.000000 1.000000
v 0.831470 0.555570 1.000000
v 0.881921 0.471397 1.000000
v 0.000000 0.000000 1.000000
v 0.881921 0.471397 1.000000
v 0.923880 0.382683 1.000000
v 0.000000 0.000000 1.000000
v 0.923880 0.382683 1.000000
v 0.956940 0.290285 1.000000
v 0.000000 0.000000 1.000000
v 0.956940 0.290285 1.000000
v 0.980785 0.195090 1.000000
v 0.000000 0.000000 1.000000
v 0.980785 0.195090 1.000000
v 0.995185 0.098017 1.000000
v 0.000000 0.000000 1.000000
v 0.995185 0.098017 1.000000
v 1.000000 0.000000 1.000000
s 0
f 1 2 3
f 1 3 4
f 5 7 6
f 5 8 7
f 9 11 10
f 9 12 11
f 13 15 14
f 13 16 15
f 17 19 18
f 17 20 19
f 21 23 22
f 21 24 23
f 25 27 26
f 25 28 27
f 29 31 30
f 29 32 31
f 33 35 34
f 33 36 35
f 37 39 38
f 37 40 39
f 41 43 42
f 41 44 43
f 45 47 46
f 45 48 47
f 49 51 50
f 49 52 51
f 53 55 54
f 53 56 55
f 57 59 58
f 57 60 59
f 61 63 62
f 61 64 63
f 65 67 66
f 68 69 70
f 68 70 71
f 72 73 74
f 72 74 75
f 76 77 78
f 76 78 79
f 80 81 82
f 80 82 83
f 84 85 86
f 84 86 87
f 88 89 90
f 88 90 91
f 92 93 94
f 92 94 95
f 96 97 98
f 96 98 99
f 100 101 102
f 100 102 103
f 104 105 106
f 104 106 107
f 108 109 110
f 108 110 111
f 112 113 114
f 112 114 115
f 116 117 118
f 116 118 119
f 120 121 122
f 120 122 123
f 124 125 126
f 124 126 127
f 128 129 130
f 131 132 133
f 131 133 134
f 135 137 136
f 135 138 137
f 139 140 141
f 142 143 144
f 145 146 147
f 148 149 150
f 151 152 153
f 154 155 156
f 157 158 159
f 160 161 162
f 163 164 165
f 166 167 168
f 169 170 171
f 172 173 174
f 175 176 177
f 178 179 180
f 181 182 183
f 184 185 186
f 187 189 188
f 190 192 191
f 193 195 194
f 196 198 197
f 199 201 200
f 202 204 203
f 205 207 206
f 208 210 209
f 211 213 212
f 214 216 215
f 217 219 218
f 220 222 221
f 223 225 224
f 226 228 227
f 229 231 230
f 232 234 233
