# Blender 5.2.1 LTS
# www.blender.org
o slope_convex_outer
v -0.000000 0.000000 -0.000000
v 1.000000 0.000000 -0.000000
v 1.000000 -0.000000 1.000000
v -0.000000 -0.000000 1.000000
v -0.000000 0.000000 -0.000000
v -0.000000 0.991445 0.130526
v -0.000000 1.000000 0.000000
v -0.000000 0.000000 -0.000000
v -0.000000 0.965926 0.258819
v -0.000000 0.991445 0.130526
v -0.000000 0.000000 -0.000000
v -0.000000 0.923880 0.382683
v -0.000000 0.965926 0.258819
v -0.000000 0.000000 -0.000000
v -0.000000 0.866025 0.500000
v -0.000000 0.923880 0.382683
v -0.000000 0.000000 -0.000000
v -0.000000 0.793353 0.608761
v -0.000000 0.866025 0.500000
v -0.000000 0.000000 -0.000000
v -0.000000 0.707107 0.707107
v -0.000000 0.793353 0.608761
v -0.000000 0.000000 -0.000000
v -0.000000 0.608761 0.793353
v -0.000000 0.707107 0.707107
v -0.000000 0.000000 -0.000000
v -0.000000 0.500000 0.866025
v -0.000000 0.608761 0.793353
v -0.000000 0.000000 -0.000000
v -0.000000 0.382683 0.923880
v -0.000000 0.500000 0.866025
v -0.000000 0.000000 -0.000000
v -0.000000 0.258819 0.965926
v -0.000000 0.382683 0.923880
v -0.000000 0.000000 -0.000000
v -0.000000 0.130526 0.991445
v -0.000000 0.258819 0.965926
v -0.000000 0.000000 -0.000000
v -0.000000 -0.000000 1.000000
v -0.000000 0.130526 0.991445
v -0.000000 0.000000 -0.000000
v -0.000000 1.000000 0.000000
v 0.130526 0.991445 0.000000
v -0.000000 0.000000 -0.000000
v 0.130526 0.991445 0.000000
v 0.258819 0.965926 0.000000
v -0.000000 0.000000 -0.000000
v 0.258819 0.965926 0.000000
v 0.382683 0.923880 0.000000
v -0.000000 0.000000 -0.000000
v 0.382683 0.923880 0.000000
v 0.500000 0.866025 0.000000
v -0.000000 0.000000 -0.000000
v 0.500000 0.866025 0.000000
v 0.608761 0.793353 0.000000
v -0.000000 0.000000 -0.000000
v 0.608761 0.793353 0.000000
v 0.707107 0.707107 0.000000
v -0.000000 0.000000 -0.000000
v 0.707107 0.707107 0.000000
v 0.793353 0.608761 -0.000000
v -0.000000 0.000000 -0.000000
v 0.793353 0.608761 -0.000000
v 0.866025 0.500000 -0.000000
v -0.000000 0.000000 -0.000000
v 0.866025 0.500000 -0.000000
v 0.923880 0.382683 -0.000000
v -0.000000 0.000000 -0.000000
v 0.923880 0.382683 -0.000000
v 0.965926 0.258819 -0.000000
v -0.000000 0.000000 -0.000000
v 0.965926 0.258819 -0.000000
v 0.991445 0.130526 -0.000000
v -0.000000 0.000000 -0.000000
v 0.991445 0.130526 -0.000000
v 1.000000 0.000000 -0.000000
v -0.000000 1.000000 0.000000
v 0.130526 0.991445 0.130526
v 0.130526 0.991445 0.000000
v 0.130526 0.991445 0.000000
v 0.258819 0.965926 0.000000
v 0.258819 0.965926 0.258819
v 0.130526 0.991445 0.130526
v 0.258819 0.965926 0.000000
v 0.382683 0.923880 0.000000
v 0.382683 0.923880 0.382683
v 0.258819 0.965926 0.258819
v 0.382683 0.923880 0.000000
v 0.500000 0.866025 0.000000
v 0.500000 0.866025 0.500000
v 0.382683 0.923880 0.382683
v 0.500000 0.866025 0.000000
v 0.608761 0.793353 0.000000
v 0.608761 0.793353 0.608761
v 0.500000 0.866025 0.500000
v 0.608761 0.793353 0.000000
v 0.707107 0.707107 0.000000
v 0.707107 0.707107 0.707107
v 0.608761 0.793353 0.608761
v 0.707107 0.707107 0.000000
v 0.793353 0.608761 -0.000000
v 0.793353 0.608761 0.793353
v 0.707107 0.707107 0.707107
v 0.793353 0.608761 -0.000000
v 0.866025 0.500000 -0.000000
v 0.866025 0.500000 0.866025
v 0.793353 0.608761 0.793353
v 0.866025 0.500000 -0.000000
v 0.923880 0.382683 -0.000000
v 0.923880 0.382683 0.923880
v 0.866025 0.500000 0.866025
v 0.923880 0.382683 -0.000000
v 0.965926 0.258819 -0.000000
v 0.965926 0.258819 0.965926
v 0.923880 0.382683 0.923880
v 0.965926 0.258819 -0.000000
v 0.991445 0.130526 -0.000000
v 0.991445 0.130526 0.991445
v 0.965926 0.258819 0.965926
v 0.991445 0.130526 -0.000000
v 1.000000 0.000000 -0.000000
v 1.000000 -0.000000 1.000000
v 0.991445 0.130526 0.991445
v -0.000000 1.000000 0.000000
v -0.000000 0.991445 0.130526
v 0.130526 0.991445 0.130526
v -0.000000 0.991445 0.130526
v -0.000000 0.965926 0.258819
v 0.258819 0.965926 0.258819
v 0.130526 0.991445 0.130526
v -0.000000 0.965926 0.258819
v -0.000000 0.923880 0.382683
v 0.382683 0.923880 0.382683
v 0.258819 0.965926 0.258819
v -0.000000 0.923880 0.382683
v -0.000000 0.866025 0.500000
v 0.500000 0.866025 0.500000
v 0.382683 0.923880 0.382683
v -0.000000 0.866025 0.500000
v -0.000000 0.793353 0.608761
v 0.608761 0.793353 0.608761
v 0.500000 0.866025 0.500000
v -0.000000 0.793353 0.608761
v -0.000000 0.707107 0.707107
v 0.707107 0.707107 0.707107
v 0.608761 0.793353 0.608761
v -0.000000 0.707107 0.707107
v -0.000000 0.608761 0.793353
v 0.793353 0.608761 0.793353
v 0.707107 0.707107 0.707107
v -0.000000 0.608761 0.793353
v -0.000000 0.500000 0.866025
v 0.866025 0.500000 0.866025
v 0.793353 0.608761 0.793353
v -0.000000 0.500000 0.866025
v -0.000000 0.382683 0.923880
v 0.923880 0.382683 0.923880
v 0.866025 0.500000 0.866025
v -0.000000 0.382683 0.923880
v -0.000000 0.258819 0.965926
v 0.965926 0.258819 0.965926
v 0.923880 0.382683 0.923880
v -0.000000 0.258819 0.965926
v -0.000000 0.130526 0.991445
v 0.991445 0.130526 0.991445
v 0.965926 0.258819 0.965926
v -0.000000 0.130526 0.991445
v -0.000000 -0.000000 1.000000
v 1.000000 -0.000000 1.000000
v 0.991445 0.130526 0.991445
s 0
f 1 2 3
f 1 3 4
f 5 6 7
f 8 9 10
f 11 12 13
f 14 15 16
f 17 18 19
f 20 21 22
f 23 24 25
f 26 27 28
f 29 30 31
f 32 33 34
f 35 36 37
f 38 39 40
f 41 42 43
f 44 45 46
f 47 48 49
f 50 51 52
f 53 54 55
f 56 57 58
f 59 60 61
f 62 63 64
f 65 66 67
f 68 69 70
f 71 72 73
f 74 75 76
f 77 78 79
f 80 82 81
f 80 83 82
f 84 86 85
f 84 87 86
f 88 90 89
f 88 91 90
f 92 94 93
f 92 95 94
f 96 98 97
f 96 99 98
f 100 102 101
f 100 103 102
f 104 106 105
f 104 107 106
f 108 110 109
f 108 111 110
f 112 114 113
f 112 115 114
f 116 118 117
f 116 119 118
f 120 122 121
f 120 123 122
f 124 125 126
f 127 128 129
f 127 129 130
f 131 132 133
f 131 133 134
f 135 136 137
f 135 137 138
f 139 140 141
f 139 141 142
f 143 144 145
f 143 145 146
f 147 148 149
f 147 149 150
f 151 152 153
f 151 153 154
f 155 156 157
f 155 157 158
f 159 160 161
f 159 161 162
f 163 164 165
f 163 165 166
f 167 168 169
f 167 169 170
